<?xml version="1.0" encoding="utf-8"?>
<!-- Generator: Adobe Illustrator 20.1.0, SVG Export Plug-In . SVG Version: 6.00 Build 0)  -->
<svg version="1.1" id="Layer_1" xmlns="http://www.w3.org/2000/svg" xmlns:xlink="http://www.w3.org/1999/xlink" x="0px" y="0px"
	 viewBox="0 0 174 215" style="enable-background:new 0 0 174 215;" xml:space="preserve">
<style type="text/css">
	.st0{filter:url(#Adobe_OpacityMaskFilter);}
	.st1{fill:#FFFFFF;}
	.st2{mask:url(#mask-2);}
	.st3{fill:#DADADA;}
	.st4{fill:#7B7B7B;}
	.st5{fill:#353535;}
	.st6{fill:#727272;}
	.st7{display:none;}
	.st8{display:inline;fill:#ED3424;}
	.st9{display:inline;fill:#353535;}
	.st10{display:inline;fill:#1B1B1B;}
	.st11{display:inline;fill:#EBEBD7;}
	.st12{display:inline;fill:#FFFFFF;}
	.st13{display:inline;fill:#5B5B5A;}
	.st14{display:inline;fill:#F05A28;}
	.st15{display:inline;fill:#FFF100;}
	.st16{display:inline;fill:#2D2932;}
	.st17{fill:#30302F;}
	.st18{fill:#1D1D1B;}
	.st19{fill:#1E1E1E;}
	.st20{fill:#242422;}
	.st21{fill:#D9D9D9;}
	.st22{fill:#C6C6C5;}
	.st23{fill:#A7A6A6;}
	.st24{fill:#BD1622;}
	.st25{fill:#F8B133;}
	.st26{fill:#2D2D2B;}
	.st27{fill:#8ACFE4;}
	.st28{fill:#7EBBCD;}
	.st29{fill:#3F3F3E;}
	.st30{fill:#A72D2B;}
	.st31{fill:#862521;}
	.st32{fill:#D1D1D1;}
	.st33{fill:#D5DA2C;}
</style>
<title>Artboard 9</title>
<desc>Created with Sketch.</desc>
<g id="Clinic_x2F_Hospital-Listing-Copy">
	<g id="Artboard-9">
		<defs>
			<filter id="Adobe_OpacityMaskFilter" filterUnits="userSpaceOnUse" x="1.2" y="1" width="172" height="214">
				<feColorMatrix  type="matrix" values="1 0 0 0 0  0 1 0 0 0  0 0 1 0 0  0 0 0 1 0"/>
			</filter>
		</defs>
		<mask maskUnits="userSpaceOnUse" x="1.2" y="1" width="172" height="214" id="mask-2">
			<g class="st0">
				<rect id="path-1" x="2.2" y="2" class="st1" width="170" height="212"/>
			</g>
		</mask>
		<g id="Group-Copy" class="st2">
			<g id="Rectangle-7">
				<g id="path-1_1_">
					<rect x="2.2" y="2" class="st1" width="170" height="212"/>
					<path class="st3" d="M173.2,215H1.2V1h172V215z M3.2,213h168V3H3.2V213z"/>
				</g>
			</g>
			<g id="T_x26_C-Apply.">
				<path class="st4" d="M70.6,199h-0.7v-5.1h-1.8v-0.6h4.3v0.6h-1.8V199z M74.1,194.4c0,0.2,0,0.4,0.1,0.5s0.3,0.4,0.5,0.6
					c0.3-0.2,0.6-0.4,0.7-0.5s0.2-0.4,0.2-0.6c0-0.2-0.1-0.4-0.2-0.5s-0.3-0.2-0.5-0.2c-0.2,0-0.4,0.1-0.6,0.2
					S74.1,194.2,74.1,194.4L74.1,194.4z M74.7,198.5c0.6,0,1.1-0.2,1.6-0.6l-1.7-1.7c-0.3,0.2-0.5,0.3-0.6,0.4s-0.2,0.2-0.3,0.4
					s-0.1,0.3-0.1,0.5c0,0.3,0.1,0.5,0.3,0.7S74.3,198.5,74.7,198.5L74.7,198.5z M72.9,197.5c0-0.3,0.1-0.6,0.3-0.9s0.5-0.5,1-0.8
					c-0.2-0.2-0.4-0.4-0.5-0.6s-0.1-0.3-0.2-0.4s-0.1-0.3-0.1-0.4c0-0.4,0.1-0.7,0.4-0.9s0.6-0.3,1.1-0.3c0.4,0,0.8,0.1,1,0.3
					s0.4,0.5,0.4,0.9c0,0.3-0.1,0.5-0.3,0.8s-0.5,0.5-0.9,0.7l1.6,1.5c0.1-0.2,0.3-0.4,0.3-0.6s0.2-0.5,0.2-0.7h0.7
					c-0.2,0.7-0.4,1.3-0.8,1.7l1.2,1.1h-0.9l-0.7-0.7c-0.3,0.3-0.6,0.5-0.9,0.6s-0.7,0.2-1.1,0.2c-0.6,0-1-0.1-1.3-0.4
					S72.9,198,72.9,197.5L72.9,197.5z M81.5,193.8c-0.6,0-1.1,0.2-1.5,0.6s-0.5,1-0.5,1.7c0,0.7,0.2,1.3,0.5,1.7s0.8,0.6,1.5,0.6
					c0.4,0,0.9-0.1,1.4-0.2v0.6c-0.4,0.1-0.9,0.2-1.5,0.2c-0.8,0-1.5-0.3-1.9-0.8s-0.7-1.2-0.7-2.2c0-0.6,0.1-1.1,0.3-1.5
					s0.5-0.8,1-1s0.9-0.4,1.5-0.4c0.6,0,1.1,0.1,1.6,0.3l-0.3,0.6C82.4,193.9,81.9,193.8,81.5,193.8L81.5,193.8z M89.8,199l-0.7-1.8
					h-2.3l-0.7,1.8h-0.7l2.3-5.7h0.6l2.2,5.7H89.8z M88.9,196.6l-0.7-1.8c-0.1-0.2-0.2-0.5-0.3-0.8c-0.1,0.2-0.1,0.5-0.2,0.8
					l-0.7,1.8H88.9z M93.1,199.1c-0.3,0-0.5-0.1-0.8-0.2s-0.4-0.3-0.6-0.5h0c0,0.2,0,0.5,0,0.7v1.8h-0.6v-6.2h0.5l0.1,0.6h0
					c0.2-0.2,0.4-0.4,0.6-0.5s0.5-0.2,0.8-0.2c0.6,0,1,0.2,1.3,0.6s0.5,0.9,0.5,1.6c0,0.7-0.2,1.2-0.5,1.6S93.7,199.1,93.1,199.1
					L93.1,199.1z M93.1,195.2c-0.4,0-0.8,0.1-0.9,0.4s-0.3,0.6-0.3,1.2v0.1c0,0.6,0.1,1,0.3,1.3s0.5,0.4,1,0.4
					c0.4,0,0.7-0.1,0.9-0.4s0.3-0.7,0.3-1.2c0-0.5-0.1-0.9-0.3-1.2S93.4,195.2,93.1,195.2L93.1,195.2z M98,199.1
					c-0.3,0-0.5-0.1-0.8-0.2s-0.4-0.3-0.6-0.5h0c0,0.2,0,0.5,0,0.7v1.8h-0.6v-6.2h0.5l0.1,0.6h0c0.2-0.2,0.4-0.4,0.6-0.5
					s0.5-0.2,0.8-0.2c0.6,0,1,0.2,1.3,0.6s0.5,0.9,0.5,1.6c0,0.7-0.2,1.2-0.5,1.6S98.6,199.1,98,199.1L98,199.1z M98,195.2
					c-0.4,0-0.8,0.1-0.9,0.4s-0.3,0.6-0.3,1.2v0.1c0,0.6,0.1,1,0.3,1.3s0.5,0.4,1,0.4c0.4,0,0.7-0.1,0.9-0.4s0.3-0.7,0.3-1.2
					c0-0.5-0.1-0.9-0.3-1.2S98.3,195.2,98,195.2L98,195.2z M101.6,199H101v-6.1h0.6V199z M102.3,194.7h0.7l0.9,2.4
					c0.2,0.6,0.3,1,0.4,1.2h0c0-0.1,0.1-0.4,0.2-0.7s0.5-1.3,1.1-3h0.7l-1.8,4.9c-0.2,0.5-0.4,0.8-0.6,1s-0.5,0.3-0.9,0.3
					c-0.2,0-0.4,0-0.6-0.1v-0.5c0.1,0,0.3,0,0.5,0c0.4,0,0.8-0.2,1-0.8l0.2-0.6L102.3,194.7z M106.9,198.6c0-0.2,0-0.3,0.1-0.4
					s0.2-0.1,0.3-0.1c0.2,0,0.3,0,0.4,0.1s0.1,0.2,0.1,0.4c0,0.2,0,0.3-0.1,0.4s-0.2,0.1-0.4,0.1c-0.1,0-0.2,0-0.3-0.1
					S106.9,198.8,106.9,198.6L106.9,198.6z"/>
			</g>
		</g>
	</g>
</g>
<g>
	<path class="st5" d="M36.5,95.9h3.8c1.9,0,3.2,1.3,3.2,3.2s-1.3,3.3-3.2,3.3h-2v3.4h-1.8V95.9z M40,100.9c1.1,0,1.7-0.7,1.7-1.7
		c0-1-0.6-1.7-1.6-1.7h-1.7v3.4H40z"/>
	<path class="st5" d="M44.8,98.7h1.7v1.2c0,0.3,0,0.5,0,0.5h0c0.3-1,1.2-1.8,2.3-1.8c0.2,0,0.3,0,0.3,0v1.8c0,0-0.2,0-0.4,0
		c-0.8,0-1.6,0.4-1.9,1.5c-0.1,0.4-0.2,0.7-0.2,1.2v2.8h-1.8V98.7z"/>
	<path class="st5" d="M54,101.4h0.2v-0.1c0-0.9-0.6-1.3-1.4-1.3c-1,0-2,0.7-2,0.7l-0.7-1.3c0,0,1.1-0.9,2.8-0.9c1.9,0,3,1,3,2.8v4.5
		h-1.6v-0.6c0-0.3,0-0.5,0-0.5h0c0,0-0.5,1.3-2.2,1.3c-1.3,0-2.4-0.8-2.4-2.2C49.7,101.6,52.8,101.4,54,101.4z M52.6,104.7
		c0.9,0,1.6-1,1.6-1.9v-0.2h-0.3c-0.9,0-2.4,0.1-2.4,1.1C51.5,104.2,51.9,104.7,52.6,104.7z"/>
	<path class="st5" d="M61.2,98.6c1.9,0,2.7,1.1,2.7,1.1l-0.8,1.2c0,0-0.7-0.8-1.9-0.8c-1.3,0-2.2,1-2.2,2.2c0,1.2,0.9,2.2,2.2,2.2
		c1.2,0,2.1-0.9,2.1-0.9l0.7,1.3c0,0-1,1.2-2.9,1.2c-2.4,0-3.9-1.7-3.9-3.7C57.3,100.3,58.8,98.6,61.2,98.6z"/>
	<path class="st5" d="M65.8,100.3h-0.9v-1.4h1v-2.1h1.7v2.1h1.6v1.4h-1.6v2.8c0,1.2,0.9,1.3,1.4,1.3c0.2,0,0.3,0,0.3,0v1.6
		c0,0-0.2,0-0.5,0c-1,0-3-0.3-3-2.7V100.3z"/>
	<path class="st5" d="M74.1,98.6c2.2,0,3.9,1.6,3.9,3.7c0,2.2-1.8,3.7-3.9,3.7c-2.2,0-3.9-1.5-3.9-3.7
		C70.2,100.1,71.9,98.6,74.1,98.6z M74.1,104.5c1.1,0,2.1-0.9,2.1-2.2c0-1.3-1-2.2-2.1-2.2c-1.2,0-2.1,0.9-2.1,2.2
		C72,103.6,73,104.5,74.1,104.5z"/>
	<path class="st5" d="M83.1,103.8c0,0,0.8,0.8,1.9,0.8c0.5,0,0.9-0.2,0.9-0.6c0-1.1-3.5-0.9-3.5-3.2c0-1.3,1.2-2.1,2.7-2.1
		c1.6,0,2.4,0.8,2.4,0.8l-0.7,1.3c0,0-0.7-0.6-1.8-0.6c-0.5,0-0.9,0.2-0.9,0.6c0,1,3.5,0.9,3.5,3.2c0,1.2-1,2.1-2.7,2.1
		c-1.8,0-2.8-1.1-2.8-1.1L83.1,103.8z"/>
	<path class="st5" d="M92.8,101.4h0.2v-0.1c0-0.9-0.6-1.3-1.4-1.3c-1,0-2,0.7-2,0.7l-0.7-1.3c0,0,1.1-0.9,2.8-0.9c1.9,0,3,1,3,2.8
		v4.5h-1.6v-0.6c0-0.3,0-0.5,0-0.5h0c0,0-0.5,1.3-2.2,1.3c-1.3,0-2.4-0.8-2.4-2.2C88.6,101.6,91.7,101.4,92.8,101.4z M91.5,104.7
		c0.9,0,1.6-1,1.6-1.9v-0.2h-0.3c-0.9,0-2.4,0.1-2.4,1.1C90.4,104.2,90.8,104.7,91.5,104.7z"/>
	<path class="st5" d="M96.3,107c0,0,0.4,0.3,0.8,0.3c0.5,0,1-0.3,1.2-0.9l0.3-0.6l-3-7h2l1.5,4.1c0.1,0.4,0.3,1,0.3,1h0
		c0,0,0.1-0.6,0.2-0.9l1.4-4.1h1.9l-3.2,8.2c-0.5,1.3-1.5,1.9-2.6,1.9c-0.9,0-1.5-0.5-1.5-0.5L96.3,107z"/>
	<path class="st5" d="M104.2,103.8c0,0,0.8,0.8,1.9,0.8c0.5,0,0.9-0.2,0.9-0.6c0-1.1-3.5-0.9-3.5-3.2c0-1.3,1.2-2.1,2.7-2.1
		c1.6,0,2.4,0.8,2.4,0.8l-0.7,1.3c0,0-0.7-0.6-1.8-0.6c-0.5,0-0.9,0.2-0.9,0.6c0,1,3.5,0.9,3.5,3.2c0,1.2-1,2.1-2.7,2.1
		c-1.8,0-2.8-1.1-2.8-1.1L104.2,103.8z"/>
	<path class="st5" d="M118.4,95.8c2.9,0,5.1,2.2,5.1,5.1c0,2.9-2.2,5.2-5.1,5.2s-5.1-2.3-5.1-5.2C113.3,98,115.5,95.8,118.4,95.8z
		 M118.4,104.4c1.8,0,3.3-1.5,3.3-3.6c0-2-1.5-3.4-3.3-3.4c-1.8,0-3.3,1.5-3.3,3.4C115.2,102.9,116.6,104.4,118.4,104.4z"/>
	<path class="st5" d="M125,95.9h1.8v7.5c0,0.8,0.3,1,0.7,1c0.1,0,0.3,0,0.3,0v1.6c0,0-0.3,0-0.6,0c-1,0-2.2-0.3-2.2-2.3V95.9z"/>
	<path class="st5" d="M132.7,101.4h0.2v-0.1c0-0.9-0.6-1.3-1.4-1.3c-1,0-2,0.7-2,0.7l-0.7-1.3c0,0,1.1-0.9,2.8-0.9c1.9,0,3,1,3,2.8
		v4.5h-1.6v-0.6c0-0.3,0-0.5,0-0.5h0c0,0-0.5,1.3-2.2,1.3c-1.3,0-2.4-0.8-2.4-2.2C128.5,101.6,131.6,101.4,132.7,101.4z
		 M131.4,104.7c0.9,0,1.6-1,1.6-1.9v-0.2h-0.3c-0.9,0-2.4,0.1-2.4,1.1C130.3,104.2,130.7,104.7,131.4,104.7z"/>
	<path class="st5" d="M137,95.9h1.8l-0.1,7.1h-1.6L137,95.9z M137,104.2h1.7v1.7H137V104.2z"/>
</g>
<g>
	<path class="st4" d="M38.7,128.5c1.9,0,2.8,0.9,2.8,0.9l-0.6,0.8c0,0-0.9-0.8-2.2-0.8c-1.8,0-2.9,1.3-2.9,3c0,1.8,1.2,3,2.9,3
		c1.3,0,2.2-1,2.2-1v-1.1h-1.3v-0.9h2.3v3.9h-1v-0.5c0-0.2,0-0.3,0-0.3h0c0,0-0.8,0.9-2.4,0.9c-2.1,0-3.8-1.7-3.8-4
		C34.7,130.3,36.4,128.5,38.7,128.5z"/>
	<path class="st4" d="M45.8,130.7c1.6,0,2.4,1.2,2.4,2.6c0,0.1,0,0.5,0,0.5h-4.1c0.1,1.2,0.9,1.8,1.9,1.8c1,0,1.7-0.6,1.7-0.6
		l0.4,0.8c0,0-0.8,0.8-2.2,0.8c-1.7,0-2.9-1.3-2.9-2.9C43,131.8,44.2,130.7,45.8,130.7z M47.1,133c0-1-0.6-1.4-1.3-1.4
		c-0.8,0-1.5,0.5-1.6,1.4H47.1z"/>
	<path class="st4" d="M49.7,131.8H49v-0.9h0.8v-1.6h1v1.6h1.3v0.9h-1.3v2.5c0,1.1,0.8,1.3,1.2,1.3c0.2,0,0.3,0,0.3,0v0.9
		c0,0-0.2,0-0.4,0c-0.7,0-2.1-0.2-2.1-2.1V131.8z"/>
	<path class="st6" d="M59.4,129.9c0.2,0.3,0.4,0.6,0.5,1h1.3v0.8h-1.3c-0.2,1.1-1,1.7-2.1,1.8c0.8,0.8,1.6,1.8,2.5,2.9h-1.8
		c-0.6-0.8-1.5-1.8-2.4-2.8v-1.1h0.7c0.9,0,1.4-0.3,1.5-0.8h-2.2v-0.8h2.2c-0.2-0.4-0.6-0.6-1.3-0.6h-0.8v-1.2h5.1v0.8H59.4z"/>
	<path class="st6" d="M64.8,135.2h1.7v-4.3c0-0.3,0-0.5,0-0.5h0c0,0-0.1,0.2-0.3,0.4l-0.6,0.6l-0.8-0.9l2-1.9h1.2v6.6h1.7v1.2h-4.8
		V135.2z"/>
	<path class="st6" d="M70.5,132.5c0-2.2,0.7-4,2.8-4s2.8,1.8,2.8,4c0,2.2-0.7,4-2.8,4S70.5,134.7,70.5,132.5z M74.7,132.5
		c0-1.5-0.3-2.7-1.4-2.7c-1.1,0-1.4,1.2-1.4,2.7c0,1.5,0.3,2.8,1.4,2.8C74.4,135.2,74.7,134,74.7,132.5z"/>
	<path class="st6" d="M77.4,132.5c0-2.2,0.7-4,2.8-4s2.8,1.8,2.8,4c0,2.2-0.7,4-2.8,4S77.4,134.7,77.4,132.5z M81.6,132.5
		c0-1.5-0.3-2.7-1.4-2.7c-1.1,0-1.4,1.2-1.4,2.7c0,1.5,0.3,2.8,1.4,2.8C81.3,135.2,81.6,134,81.6,132.5z"/>
	<path class="st4" d="M91,128.5c2.2,0,4,1.7,4,4c0,2.3-1.7,4.1-4,4.1s-4-1.8-4-4.1C87,130.2,88.8,128.5,91,128.5z M91,135.5
		c1.6,0,2.9-1.3,2.9-3.1c0-1.7-1.3-3-2.9-3s-2.9,1.3-2.9,3C88.2,134.2,89.4,135.5,91,135.5z"/>
	<path class="st4" d="M96.3,128.6h1.1v6.1c0,0.7,0.3,0.8,0.6,0.8c0.1,0,0.2,0,0.2,0v0.9c0,0-0.2,0-0.4,0c-0.6,0-1.5-0.2-1.5-1.6
		V128.6z"/>
	<path class="st4" d="M102.2,132.9h0.2v-0.1c0-0.9-0.5-1.2-1.2-1.2c-0.9,0-1.6,0.5-1.6,0.5l-0.4-0.8c0,0,0.8-0.7,2.1-0.7
		c1.4,0,2.2,0.8,2.2,2.2v3.5h-1v-0.5c0-0.3,0-0.4,0-0.4h0c0,0-0.5,1.1-1.8,1.1c-1,0-1.9-0.6-1.9-1.7
		C98.8,133,101.3,132.9,102.2,132.9z M101,135.7c0.9,0,1.5-0.9,1.5-1.8v-0.2h-0.3c-0.8,0-2.3,0.1-2.3,1.1
		C99.9,135.2,100.3,135.7,101,135.7z"/>
	<path class="st4" d="M108.1,128.6h2.8c1.4,0,2.4,1,2.4,2.4c0,1.5-1,2.5-2.4,2.5h-1.7v2.9h-1.1V128.6z M110.8,132.6
		c0.9,0,1.5-0.6,1.5-1.5c0-0.9-0.6-1.5-1.5-1.5h-1.6v3H110.8z"/>
	<path class="st4" d="M114.6,130.8h1v1c0,0.2,0,0.4,0,0.4h0c0.3-0.8,0.9-1.5,1.8-1.5c0.1,0,0.3,0,0.3,0v1.1c0,0-0.1,0-0.3,0
		c-0.7,0-1.3,0.5-1.6,1.3c-0.1,0.3-0.1,0.7-0.1,1v2.3h-1.1V130.8z"/>
	<path class="st4" d="M118.7,128.6h1.1v1.1h-1.1V128.6z M118.7,130.8h1.1v5.6h-1.1V130.8z"/>
	<path class="st4" d="M121.5,130.8h1v0.7c0,0.2,0,0.4,0,0.4h0c0.3-0.6,1-1.3,1.9-1.3c0.9,0,1.5,0.4,1.7,1.3h0c0.3-0.7,1.1-1.3,2-1.3
		c1.3,0,1.8,0.7,1.8,2.1v3.6h-1.1v-3.3c0-0.8-0.2-1.4-1-1.4c-0.8,0-1.4,0.7-1.6,1.4c-0.1,0.2-0.1,0.5-0.1,0.8v2.5h-1.1v-3.3
		c0-0.7-0.1-1.4-1-1.4c-0.8,0-1.4,0.7-1.6,1.5c-0.1,0.2-0.1,0.5-0.1,0.7v2.5h-1.1V130.8z"/>
	<path class="st4" d="M133.9,130.7c1.6,0,2.4,1.2,2.4,2.6c0,0.1,0,0.5,0,0.5h-4.1c0.1,1.2,0.9,1.8,1.9,1.8c1,0,1.7-0.6,1.7-0.6
		l0.4,0.8c0,0-0.8,0.8-2.2,0.8c-1.7,0-2.9-1.3-2.9-2.9C131.1,131.8,132.3,130.7,133.9,130.7z M135.2,133c0-1-0.6-1.4-1.3-1.4
		c-0.8,0-1.5,0.5-1.6,1.4H135.2z"/>
	<path class="st4" d="M39.1,142.8h1.1l1.4,3.8c0.1,0.3,0.2,0.8,0.2,0.8h0c0,0,0.1-0.5,0.2-0.8l1.4-3.8h1.1l-2.1,5.6h-1.2L39.1,142.8
		z"/>
	<path class="st4" d="M48,142.7c1.7,0,3,1.2,3,2.9c0,1.7-1.3,2.9-3,2.9s-3-1.2-3-2.9C45,143.9,46.3,142.7,48,142.7z M48,147.6
		c1.1,0,1.9-0.8,1.9-2c0-1.2-0.9-2-1.9-2c-1,0-1.9,0.8-1.9,2C46.1,146.8,46.9,147.6,48,147.6z"/>
	<path class="st4" d="M52.2,142.8h1.1v3.3c0,0.8,0.2,1.4,1,1.4c1.1,0,1.8-1,1.8-2.1v-2.6h1.1v5.6h-1v-0.7c0-0.2,0-0.4,0-0.4h0
		c-0.2,0.6-1,1.3-2,1.3c-1.3,0-1.9-0.7-1.9-2.1V142.8z"/>
	<path class="st4" d="M61.4,142.7c1.4,0,2.1,0.8,2.1,0.8l-0.5,0.7c0,0-0.6-0.6-1.5-0.6c-1.1,0-1.9,0.8-1.9,2c0,1.1,0.8,2,2,2
		c1,0,1.7-0.7,1.7-0.7l0.4,0.8c0,0-0.8,0.9-2.2,0.9c-1.7,0-3-1.2-3-2.9C58.4,144,59.7,142.7,61.4,142.7z"/>
	<path class="st4" d="M64.8,140.6h1.1v2.8c0,0.3,0,0.5,0,0.5h0c0.2-0.5,0.9-1.2,2.1-1.2c1.3,0,1.9,0.7,1.9,2.1v3.6h-1.1v-3.3
		c0-0.8-0.2-1.4-1.1-1.4c-0.8,0-1.5,0.6-1.8,1.4c-0.1,0.2-0.1,0.5-0.1,0.7v2.6h-1.1V140.6z"/>
	<path class="st4" d="M73.9,142.7c1.6,0,2.4,1.2,2.4,2.6c0,0.1,0,0.5,0,0.5h-4.1c0.1,1.2,0.9,1.8,1.9,1.8c1,0,1.7-0.6,1.7-0.6
		l0.4,0.8c0,0-0.8,0.8-2.2,0.8c-1.7,0-2.9-1.3-2.9-2.9C71.1,143.8,72.3,142.7,73.9,142.7z M75.2,145c0-1-0.6-1.4-1.3-1.4
		c-0.8,0-1.5,0.5-1.6,1.4H75.2z"/>
	<path class="st4" d="M77.6,142.8h1v1c0,0.2,0,0.4,0,0.4h0c0.3-0.8,0.9-1.5,1.8-1.5c0.1,0,0.3,0,0.3,0v1.1c0,0-0.1,0-0.3,0
		c-0.7,0-1.3,0.5-1.6,1.3c-0.1,0.3-0.1,0.7-0.1,1v2.3h-1.1V142.8z"/>
	<path class="st4" d="M83.9,142.8H85l1.2,3.9c0.1,0.3,0.1,0.6,0.1,0.6h0c0,0,0.1-0.3,0.1-0.6l1.2-3.9h1l1.2,3.9
		c0.1,0.3,0.2,0.6,0.2,0.6h0c0,0,0-0.3,0.1-0.6l1.2-3.9h1.1l-1.8,5.6h-1.2l-1.2-3.6c-0.1-0.3-0.2-0.6-0.2-0.6h0c0,0-0.1,0.3-0.2,0.6
		l-1.1,3.6h-1.2L83.9,142.8z"/>
	<path class="st4" d="M93.5,140.6h1.1v1.1h-1.1V140.6z M93.5,142.8h1.1v5.6h-1.1V142.8z"/>
	<path class="st4" d="M96.5,143.8h-0.7v-0.9h0.8v-1.6h1v1.6h1.3v0.9h-1.3v2.5c0,1.1,0.8,1.3,1.2,1.3c0.2,0,0.3,0,0.3,0v0.9
		c0,0-0.2,0-0.4,0c-0.7,0-2.1-0.2-2.1-2.1V143.8z"/>
	<path class="st4" d="M100.2,140.6h1.1v2.8c0,0.3,0,0.5,0,0.5h0c0.2-0.5,0.9-1.2,2.1-1.2c1.3,0,1.9,0.7,1.9,2.1v3.6h-1.1v-3.3
		c0-0.8-0.2-1.4-1.1-1.4c-0.8,0-1.5,0.6-1.8,1.4c-0.1,0.2-0.1,0.5-0.1,0.7v2.6h-1.1V140.6z"/>
	<path class="st4" d="M109.2,149.5c0,0,0.3,0.2,0.6,0.2c0.4,0,0.8-0.3,1-0.8l0.3-0.6l-2.3-5.5h1.2l1.4,3.6c0.1,0.3,0.2,0.7,0.2,0.7
		h0c0,0,0.1-0.4,0.2-0.7l1.4-3.7h1.2l-2.6,6.6c-0.3,0.9-1,1.3-1.8,1.3c-0.6,0-1.1-0.3-1.1-0.3L109.2,149.5z"/>
	<path class="st4" d="M117.8,142.7c1.7,0,3,1.2,3,2.9c0,1.7-1.3,2.9-3,2.9s-3-1.2-3-2.9C114.8,143.9,116.2,142.7,117.8,142.7z
		 M117.8,147.6c1.1,0,1.9-0.8,1.9-2c0-1.2-0.9-2-1.9-2c-1,0-1.9,0.8-1.9,2C115.9,146.8,116.8,147.6,117.8,147.6z"/>
	<path class="st4" d="M122,142.8h1.1v3.3c0,0.8,0.2,1.4,1,1.4c1.1,0,1.8-1,1.8-2.1v-2.6h1.1v5.6h-1v-0.7c0-0.2,0-0.4,0-0.4h0
		c-0.2,0.6-1,1.3-2,1.3c-1.3,0-1.9-0.7-1.9-2.1V142.8z"/>
	<path class="st4" d="M128.7,142.8h1v1c0,0.2,0,0.4,0,0.4h0c0.3-0.8,0.9-1.5,1.8-1.5c0.1,0,0.3,0,0.3,0v1.1c0,0-0.1,0-0.3,0
		c-0.7,0-1.3,0.5-1.6,1.3c-0.1,0.3-0.1,0.7-0.1,1v2.3h-1.1V142.8z"/>
	<path class="st4" d="M33.9,156.9h0.2v-0.1c0-0.9-0.5-1.2-1.2-1.2c-0.9,0-1.6,0.5-1.6,0.5l-0.4-0.8c0,0,0.8-0.7,2.1-0.7
		c1.4,0,2.2,0.8,2.2,2.2v3.5h-1v-0.5c0-0.3,0-0.4,0-0.4h0c0,0-0.5,1.1-1.8,1.1c-1,0-1.9-0.6-1.9-1.7C30.5,157,32.9,156.9,33.9,156.9
		z M32.6,159.7c0.9,0,1.5-0.9,1.5-1.8v-0.2h-0.3c-0.8,0-2.3,0.1-2.3,1.1C31.6,159.2,31.9,159.7,32.6,159.7z"/>
	<path class="st4" d="M36.8,154.8h1v0.5c0,0.2,0,0.4,0,0.4h0c0,0,0.5-1,1.9-1c1.5,0,2.4,1.2,2.4,2.9c0,1.8-1.1,2.9-2.5,2.9
		c-1.2,0-1.7-0.9-1.7-0.9h0c0,0,0,0.2,0,0.5v2.5h-1.1V154.8z M39.4,159.6c0.9,0,1.6-0.7,1.6-2c0-1.2-0.6-2-1.6-2
		c-0.8,0-1.6,0.6-1.6,2C37.8,158.6,38.4,159.6,39.4,159.6z"/>
	<path class="st4" d="M43.4,154.8h1v0.5c0,0.2,0,0.4,0,0.4h0c0,0,0.5-1,1.9-1c1.5,0,2.4,1.2,2.4,2.9c0,1.8-1.1,2.9-2.5,2.9
		c-1.2,0-1.7-0.9-1.7-0.9h0c0,0,0,0.2,0,0.5v2.5h-1.1V154.8z M46,159.6c0.9,0,1.6-0.7,1.6-2c0-1.2-0.6-2-1.6-2c-0.8,0-1.6,0.6-1.6,2
		C44.4,158.6,45,159.6,46,159.6z"/>
	<path class="st4" d="M52.6,154.7c1.7,0,3,1.2,3,2.9c0,1.7-1.3,2.9-3,2.9s-3-1.2-3-2.9C49.6,155.9,50.9,154.7,52.6,154.7z
		 M52.6,159.6c1.1,0,1.9-0.8,1.9-2c0-1.2-0.9-2-1.9-2c-1,0-1.9,0.8-1.9,2C50.7,158.8,51.5,159.6,52.6,159.6z"/>
	<path class="st4" d="M56.8,152.6h1.1v1.1h-1.1V152.6z M56.8,154.8h1.1v5.6h-1.1V154.8z"/>
	<path class="st4" d="M59.6,154.8h1v0.7c0,0.2,0,0.4,0,0.4h0c0.2-0.5,0.9-1.3,2.1-1.3c1.3,0,1.9,0.7,1.9,2.1v3.6h-1.1v-3.3
		c0-0.8-0.2-1.4-1.1-1.4c-0.8,0-1.5,0.6-1.8,1.4c-0.1,0.2-0.1,0.5-0.1,0.7v2.6h-1.1V154.8z"/>
	<path class="st4" d="M66.4,155.8h-0.7v-0.9h0.8v-1.6h1v1.6h1.3v0.9h-1.3v2.5c0,1.1,0.8,1.3,1.2,1.3c0.2,0,0.3,0,0.3,0v0.9
		c0,0-0.2,0-0.4,0c-0.7,0-2.1-0.2-2.1-2.1V155.8z"/>
	<path class="st4" d="M70.1,154.8h1v0.7c0,0.2,0,0.4,0,0.4h0c0.3-0.6,1-1.3,1.9-1.3c0.9,0,1.5,0.4,1.7,1.3h0c0.3-0.7,1.1-1.3,2-1.3
		c1.3,0,1.8,0.7,1.8,2.1v3.6h-1.1v-3.3c0-0.8-0.2-1.4-1-1.4c-0.8,0-1.4,0.7-1.6,1.4c-0.1,0.2-0.1,0.5-0.1,0.8v2.5h-1.1v-3.3
		c0-0.7-0.1-1.4-1-1.4c-0.8,0-1.4,0.7-1.6,1.5c-0.1,0.2-0.1,0.5-0.1,0.7v2.5h-1.1V154.8z"/>
	<path class="st4" d="M82.6,154.7c1.6,0,2.4,1.2,2.4,2.6c0,0.1,0,0.5,0,0.5h-4.1c0.1,1.2,0.9,1.8,1.9,1.8c1,0,1.7-0.6,1.7-0.6
		l0.4,0.8c0,0-0.8,0.8-2.2,0.8c-1.7,0-2.9-1.3-2.9-2.9C79.8,155.8,81,154.7,82.6,154.7z M83.9,157c0-1-0.6-1.4-1.3-1.4
		c-0.8,0-1.5,0.5-1.6,1.4H83.9z"/>
	<path class="st4" d="M86.3,154.8h1v0.7c0,0.2,0,0.4,0,0.4h0c0.2-0.5,0.9-1.3,2.1-1.3c1.3,0,1.9,0.7,1.9,2.1v3.6h-1.1v-3.3
		c0-0.8-0.2-1.4-1.1-1.4c-0.8,0-1.5,0.6-1.8,1.4c-0.1,0.2-0.1,0.5-0.1,0.7v2.6h-1.1V154.8z"/>
	<path class="st4" d="M93.2,155.8h-0.7v-0.9h0.8v-1.6h1v1.6h1.3v0.9h-1.3v2.5c0,1.1,0.8,1.3,1.2,1.3c0.2,0,0.3,0,0.3,0v0.9
		c0,0-0.2,0-0.4,0c-0.7,0-2.1-0.2-2.1-2.1V155.8z"/>
	<path class="st4" d="M99.7,152.6h1.1v2.5c0,0.3,0,0.5,0,0.5h0c0,0,0.5-0.9,1.8-0.9c1.5,0,2.4,1.2,2.4,2.9c0,1.8-1.1,2.9-2.5,2.9
		c-1.2,0-1.7-1-1.7-1h0c0,0,0,0.2,0,0.4v0.4h-1V152.6z M102.3,159.6c0.9,0,1.6-0.7,1.6-2c0-1.2-0.6-2-1.6-2c-0.8,0-1.6,0.6-1.6,2
		C100.7,158.6,101.3,159.6,102.3,159.6z"/>
	<path class="st4" d="M108.9,154.7c1.7,0,3,1.2,3,2.9c0,1.7-1.3,2.9-3,2.9s-3-1.2-3-2.9C105.9,155.9,107.2,154.7,108.9,154.7z
		 M108.9,159.6c1.1,0,1.9-0.8,1.9-2c0-1.2-0.9-2-1.9-2c-1,0-1.9,0.8-1.9,2C107,158.8,107.9,159.6,108.9,159.6z"/>
	<path class="st4" d="M115.8,154.7c1.7,0,3,1.2,3,2.9c0,1.7-1.3,2.9-3,2.9s-3-1.2-3-2.9C112.8,155.9,114.1,154.7,115.8,154.7z
		 M115.8,159.6c1.1,0,1.9-0.8,1.9-2c0-1.2-0.9-2-1.9-2c-1,0-1.9,0.8-1.9,2C113.8,158.8,114.7,159.6,115.8,159.6z"/>
	<path class="st4" d="M120,152.6h1.1v4.2h0.8l1.5-2h1.2l-1.8,2.5v0l2.1,3.1h-1.2l-1.7-2.6h-0.8v2.6H120V152.6z"/>
	<path class="st4" d="M125.8,152.6h1.1v1.1h-1.1V152.6z M125.8,154.8h1.1v5.6h-1.1V154.8z"/>
	<path class="st4" d="M128.6,154.8h1v0.7c0,0.2,0,0.4,0,0.4h0c0.2-0.5,0.9-1.3,2.1-1.3c1.3,0,1.9,0.7,1.9,2.1v3.6h-1.1v-3.3
		c0-0.8-0.2-1.4-1.1-1.4c-0.8,0-1.5,0.6-1.8,1.4c-0.1,0.2-0.1,0.5-0.1,0.7v2.6h-1.1V154.8z"/>
	<path class="st4" d="M137.2,161.8c1,0,1.8-0.4,1.8-1.6v-0.4c0-0.2,0-0.4,0-0.4h0c-0.3,0.6-0.8,0.9-1.7,0.9c-1.6,0-2.5-1.2-2.5-2.8
		c0-1.6,0.9-2.8,2.4-2.8c1.3,0,1.7,0.8,1.7,0.8h0c0,0,0-0.1,0-0.2v-0.5h1v5.3c0,1.8-1.4,2.5-2.8,2.5c-0.7,0-1.4-0.2-1.9-0.5l0.4-0.8
		C135.7,161.4,136.4,161.8,137.2,161.8z M139,157.5c0-1.5-0.7-1.9-1.6-1.9c-1,0-1.5,0.7-1.5,1.8c0,1.2,0.6,1.9,1.6,1.9
		C138.3,159.4,139,158.9,139,157.5z"/>
	<path class="st4" d="M62.7,166.7c1.7,0,3,1.2,3,2.9c0,1.7-1.3,2.9-3,2.9s-3-1.2-3-2.9C59.7,167.9,61,166.7,62.7,166.7z M62.7,171.6
		c1.1,0,1.9-0.8,1.9-2c0-1.2-0.9-2-1.9-2c-1,0-1.9,0.8-1.9,2C60.7,170.8,61.6,171.6,62.7,171.6z"/>
	<path class="st4" d="M66.9,166.8h1v0.7c0,0.2,0,0.4,0,0.4h0c0.2-0.5,0.9-1.3,2.1-1.3c1.3,0,1.9,0.7,1.9,2.1v3.6h-1.1v-3.3
		c0-0.8-0.2-1.4-1.1-1.4c-0.8,0-1.5,0.6-1.8,1.4c-0.1,0.2-0.1,0.5-0.1,0.7v2.6h-1.1V166.8z"/>
	<path class="st4" d="M76.6,164.6h2.8c1.4,0,2.4,1,2.4,2.4c0,1.5-1,2.5-2.4,2.5h-1.7v2.9h-1.1V164.6z M79.3,168.6
		c0.9,0,1.5-0.6,1.5-1.5c0-0.9-0.6-1.5-1.5-1.5h-1.6v3H79.3z"/>
	<path class="st4" d="M83.1,166.8h1v1c0,0.2,0,0.4,0,0.4h0c0.3-0.8,0.9-1.5,1.8-1.5c0.1,0,0.3,0,0.3,0v1.1c0,0-0.1,0-0.3,0
		c-0.7,0-1.3,0.5-1.6,1.3c-0.1,0.3-0.1,0.7-0.1,1v2.3h-1.1V166.8z"/>
	<path class="st4" d="M90.1,168.9h0.2v-0.1c0-0.9-0.5-1.2-1.2-1.2c-0.9,0-1.6,0.5-1.6,0.5l-0.4-0.8c0,0,0.8-0.7,2.1-0.7
		c1.4,0,2.2,0.8,2.2,2.2v3.5h-1v-0.5c0-0.3,0-0.4,0-0.4h0c0,0-0.5,1.1-1.8,1.1c-1,0-1.9-0.6-1.9-1.7C86.7,169,89.2,168.9,90.1,168.9
		z M88.9,171.7c0.9,0,1.5-0.9,1.5-1.8v-0.2h-0.3c-0.8,0-2.3,0.1-2.3,1.1C87.8,171.2,88.2,171.7,88.9,171.7z"/>
	<path class="st4" d="M95.6,166.7c1.4,0,2.1,0.8,2.1,0.8l-0.5,0.7c0,0-0.6-0.6-1.5-0.6c-1.1,0-1.9,0.8-1.9,2c0,1.1,0.8,2,2,2
		c1,0,1.7-0.7,1.7-0.7l0.4,0.8c0,0-0.8,0.9-2.2,0.9c-1.8,0-3-1.2-3-2.9C92.6,168,93.8,166.7,95.6,166.7z"/>
	<path class="st4" d="M99.2,167.8h-0.7v-0.9h0.8v-1.6h1v1.6h1.3v0.9h-1.3v2.5c0,1.1,0.8,1.3,1.2,1.3c0.2,0,0.3,0,0.3,0v0.9
		c0,0-0.2,0-0.4,0c-0.7,0-2.1-0.2-2.1-2.1V167.8z"/>
	<path class="st4" d="M105.5,166.7c1.7,0,3,1.2,3,2.9c0,1.7-1.3,2.9-3,2.9s-3-1.2-3-2.9C102.5,167.9,103.9,166.7,105.5,166.7z
		 M105.5,171.6c1.1,0,1.9-0.8,1.9-2c0-1.2-0.9-2-1.9-2c-1,0-1.9,0.8-1.9,2C103.6,170.8,104.5,171.6,105.5,171.6z"/>
	<path class="st4" d="M109.8,171.3h1.1v1.1h-1.1V171.3z"/>
</g>
<g class="st7">
	<ellipse transform="matrix(1 -5.753645e-03 5.753645e-03 1 -0.4474 0.4111)" class="st8" cx="71.2" cy="78" rx="1" ry="1.3"/>
	<ellipse transform="matrix(1 -5.754259e-03 5.754259e-03 1 -0.5135 0.4123)" class="st8" cx="71.4" cy="89.4" rx="1" ry="1.3"/>
	<path class="st9" d="M73,91.4c-1.2-0.4-1.6-1.1-1.9-2.5c-0.3-1.4-0.4-9.6-0.1-10.9c0.2-0.7,1-1.9,2.2-2.5
		c1.5-0.8,25.6-0.4,27.4-0.1c1.8,0.3,2.7,1.9,3.1,2.7c0.1,0.2,0.9,1.1,0.9,1.7c0.1,1.8,0.1,4.8,0,6.7c0,0.9-0.8,1.3-0.9,1.4
		c-0.3,0.7-0.6,2.6-3.1,3.2C98.3,91.7,74.5,91.9,73,91.4z"/>
	<path class="st10" d="M89.4,88.6c0,0,0.8-2.5,0.7-5.3c0-2.9-0.8-5-0.8-5l5.9-2.2c0,0,1.2,1.9,1.2,7.2c0,5.3-1.1,7.2-1.1,7.2
		L89.4,88.6z"/>
	<path class="st11" d="M89.4,88.5c0,0,0.7-2.4,0.7-5.2c0-2.8-0.8-4.8-0.8-4.8l5.7-2.1c0,0,1.1,1.8,1.2,7c0,5.2-1.1,7-1.1,7
		L89.4,88.5z"/>
	<path class="st12" d="M95.8,85.1c-1.1-0.8-2.2-1.6-3.3-2.4c-0.9-0.6-1.7-1.3-2.6-1.9c0.1,0.4,0.1,0.8,0.1,1.2
		c0.9,0.7,1.9,1.3,2.9,2c1.1,0.8,2.1,1.7,3.1,2.6c0-0.4,0.1-0.8,0.1-1.3C96,85.2,95.9,85.2,95.8,85.1z"/>
	<path class="st12" d="M95.4,86.8c-1-0.9-2.1-1.8-3.2-2.6c-0.7-0.5-1.4-0.9-2.1-1.4c0,0.2,0,0.4,0,0.6c0,0.2,0,0.3,0,0.5
		c1.8,1.6,3.8,3.1,5.6,4.7c0.1-0.3,0.1-0.7,0.2-1.1C95.7,87.2,95.5,87,95.4,86.8z"/>
	<path class="st10" d="M75.9,88.7c0,0-0.5-2.4-0.5-5.3c0-2.9,0.5-5,0.5-5l-2.6-1.2c0,0-1.4,0.6-1.3,5.9c0,6.3,1.3,6.9,1.3,6.9
		L75.9,88.7z"/>
	<path class="st11" d="M75.9,88.6c0,0-0.5-2.4-0.5-5.1c0-2.8,0.4-4.8,0.4-4.8l-2.5-1.2c0,0-1.3,0.6-1.3,5.7c0,6.1,1.2,6.7,1.2,6.7
		L75.9,88.6z"/>
	<path class="st12" d="M73,82.4c0.5,0.4,1.1,0.7,1.6,1.1c0.3,0.2,0.5,0.4,0.8,0.7c0-0.2,0-0.3,0-0.5c0,0-0.1-0.1-0.1-0.1
		c-0.7-0.6-1.3-1.2-2.1-1.7c-0.3-0.2-0.7-0.4-1-0.6c0,0.2,0,0.4,0,0.6C72.5,82,72.7,82.2,73,82.4z"/>
	<path class="st12" d="M72.1,83.3c0.1,0.1,0.3,0.2,0.4,0.2c0.3,0.2,0.7,0.5,1,0.7c0.6,0.4,1.2,0.8,1.8,1.2c0.1,0,0.1,0.1,0.2,0.1
		c0-0.2,0-0.4,0-0.6c-0.4-0.3-0.7-0.6-1.1-0.9c-0.5-0.4-1-0.7-1.5-1c-0.2-0.2-0.5-0.3-0.7-0.5c0,0.2,0,0.4,0,0.7
		C72.1,83.2,72.1,83.3,72.1,83.3z"/>
	<path class="st13" d="M94.1,76c0,0,0.2-0.7,0-1.1c-0.2-0.4-1.7-1.9-1.9-1.8c-0.2,0.1-0.3,0.7,0,1.2c0.3,0.6,0.9,1.7,1.1,1.8
		C93.6,76.2,94.1,76,94.1,76z"/>
	<path class="st12" d="M93.8,75.9c0,0-0.4-0.9-0.8-1.2c-0.3-0.3-0.9-0.9-0.7-0.4c0.2,0.5,0.8,1.6,1,1.7C93.6,76,93.8,75.9,93.8,75.9
		z"/>
	<path class="st13" d="M94.7,91c0,0,0.2,0.7,0,1.1c-0.2,0.4-1.6,1.9-1.8,1.8c-0.2-0.1-0.3-0.7,0-1.2c0.3-0.6,0.8-1.7,1.1-1.8
		C94.2,90.7,94.7,91,94.7,91z"/>
	<path class="st12" d="M94.3,91.1c0,0-0.4,0.9-0.8,1.2c-0.3,0.3-0.9,0.9-0.7,0.4c0.2-0.5,0.8-1.6,1-1.7C94.1,91,94.3,91.1,94.3,91.1
		z"/>
	<path class="st11" d="M93,74.7C93,74.7,93,74.7,93,74.7c-0.3-0.3-1-0.9-0.7-0.5c0,0.1,0.1,0.2,0.1,0.3C92.6,74.6,92.8,74.7,93,74.7
		z"/>
	<path class="st11" d="M93.6,75.6c-0.2-0.1-0.3-0.2-0.5-0.2c-0.1,0-0.2-0.1-0.3-0.1c0.2,0.3,0.4,0.6,0.5,0.6c0.2,0.1,0.4,0,0.4,0
		S93.7,75.8,93.6,75.6z"/>
	<path class="st11" d="M93.6,91.5c0.1,0.1,0.3,0.2,0.4,0.4c0.2-0.4,0.4-0.7,0.4-0.7s-0.2-0.1-0.4,0C93.8,91.1,93.7,91.2,93.6,91.5z"
		/>
	<path class="st11" d="M93.6,92.3c-0.1-0.1-0.2-0.2-0.3-0.3c-0.2,0.3-0.3,0.6-0.4,0.7C92.7,93.2,93.3,92.6,93.6,92.3
		C93.6,92.3,93.6,92.3,93.6,92.3z"/>
	<path class="st14" d="M101.6,75.9c-0.1,0.1-0.1,1,0.1,1.3c0.3,0.6,0.8,1.3,0.9,1.2c0.1-0.1,0.6-0.9,0.6-1
		C103.1,77.1,101.9,75.8,101.6,75.9z"/>
	<path class="st15" d="M103.4,77.8c-0.1,0-0.7,0.7-0.7,0.8c0,0.1,0.2,0.4,0.3,0.4c0.1,0,0.6-0.6,0.5-0.7
		C103.6,78.2,103.4,77.8,103.4,77.8z"/>

		<ellipse transform="matrix(1 -5.850755e-03 5.850755e-03 1 -0.4539 0.6014)" class="st13" cx="102.6" cy="77.9" rx="0.3" ry="0.3"/>
	<path class="st14" d="M101.3,90.7c0.1,0.1,0.9-0.3,1.2-0.6c0.5-0.5,0.9-1.2,0.8-1.3c-0.2-0.1-1-0.2-1.1-0.1
		C101.8,88.9,101.1,90.5,101.3,90.7z"/>
	<path class="st15" d="M102.4,88.4c0,0.1,0.9,0.3,1,0.3c0.1,0,0.3-0.4,0.2-0.4c0-0.1-0.8-0.3-0.9-0.2
		C102.7,88.1,102.4,88.4,102.4,88.4z"/>

		<ellipse transform="matrix(0.9219 -0.3873 0.3873 0.9219 -26.4958 46.7697)" class="st13" cx="102.8" cy="89.1" rx="0.3" ry="0.3"/>
	<path class="st13" d="M104.5,86.3l0.2,0c0.1-1.8,0.1-4.3,0-6l-0.2,0c-0.3,0-0.6,0.3-0.6,0.6l0,4.8C104,86.1,104.2,86.3,104.5,86.3z
		"/>
	<path class="st10" d="M92.3,75.9c0,0-1.8,1.3-4.3,1.6c-1.5,0.2-6.6,0.1-6.6,0.1l0-1.7L92.3,75.9z"/>
	<path class="st10" d="M74.9,76c0,0,1,1.3,2.3,1.6c0.8,0.2,3.6,0.1,3.6,0.1l0-1.7L74.9,76z"/>
	<path class="st11" d="M91.7,76.1c0,0-1.7,1.2-4,1.5c-1.4,0.2-6.2,0.1-6.2,0.1l0-1.6L91.7,76.1z"/>
	<path class="st11" d="M75.4,76.2c0,0,0.9,1.2,2.1,1.5c0.7,0.2,3.2,0.1,3.2,0.1l0-1.6L75.4,76.2z"/>
	<path class="st12" d="M84.5,77.5c-0.1,0.1-0.2,0.1-0.3,0.2c0.2,0,0.4,0,0.6,0c0.9-0.5,1.8-1,2.5-1.6l-0.7,0
		C86,76.6,85.2,77.1,84.5,77.5z"/>
	<path class="st12" d="M83,77.6c-0.1,0.1-0.2,0.1-0.2,0.2c0.1,0,0.2,0,0.3,0c0.3-0.2,0.6-0.4,0.9-0.6c0.5-0.3,1-0.7,1.6-1l-0.8,0
		C84.3,76.7,83.7,77.1,83,77.6z"/>
	<path class="st12" d="M78.6,77.8c0.2,0,0.4,0,0.5,0c-0.3-0.5-0.5-1.1-0.7-1.6l-0.4,0C78.2,76.7,78.4,77.2,78.6,77.8z"/>
	<path class="st12" d="M77.5,77.6C77.5,77.7,77.5,77.7,77.5,77.6c0.2,0,0.3,0.1,0.5,0.1c-0.2-0.5-0.4-1-0.5-1.6l-0.4,0
		C77.1,76.7,77.2,77.2,77.5,77.6z"/>
	<path class="st10" d="M92.3,90.8c0,0-1.8-1.3-4.3-1.6c-1.5-0.2-6.6-0.1-6.6-0.1l0,1.7L92.3,90.8z"/>
	<path class="st10" d="M75,90.9c0,0,1-1.3,2.3-1.6c0.8-0.2,3.6-0.1,3.6-0.1l0,1.7L75,90.9z"/>
	<path class="st11" d="M91.8,90.7c0,0-1.7-1.2-4-1.5c-1.4-0.2-6.2,0-6.2,0l0,1.6L91.8,90.7z"/>
	<path class="st11" d="M75.5,90.8c0,0,0.9-1.2,2.1-1.5c0.7-0.2,3.2-0.1,3.2-0.1l0,1.6L75.5,90.8z"/>
	<path class="st12" d="M84.6,89.3c-0.1-0.1-0.2-0.1-0.3-0.2c0.2,0,0.4,0,0.6,0c0.9,0.5,1.8,1,2.5,1.6l-0.7,0
		C86,90.2,85.3,89.7,84.6,89.3z"/>
	<path class="st12" d="M83.1,89.3c-0.1-0.1-0.2-0.1-0.2-0.2c0.1,0,0.2,0,0.3,0c0.3,0.2,0.6,0.4,1,0.6c0.5,0.3,1.1,0.6,1.6,1l-0.8,0
		C84.4,90.2,83.8,89.7,83.1,89.3z"/>
	<path class="st12" d="M78.6,89.2c0.2,0,0.4,0,0.5,0c-0.3,0.5-0.5,1.1-0.7,1.6l-0.4,0C78.3,90.2,78.4,89.7,78.6,89.2z"/>
	<path class="st12" d="M77.5,89.3C77.5,89.3,77.6,89.3,77.5,89.3c0.2,0,0.3-0.1,0.5-0.1c-0.2,0.5-0.4,1-0.5,1.6l-0.4,0
		C77.2,90.2,77.3,89.8,77.5,89.3z"/>
	<rect x="70.6" y="81" transform="matrix(1 -5.905067e-03 5.905067e-03 1 -0.4916 0.4195)" class="st16" width="0.5" height="4.9"/>
	<polygon class="st13" points="72,90.8 71.2,88.1 70.8,88.1 71,90.8 	"/>
	<polygon class="st13" points="71.8,76.6 71,79.3 70.7,79.3 70.8,76.6 	"/>
	<path class="st10" d="M103.8,78.6c0,0-0.6,0.7-0.8,0.6c-0.3-0.1-7.1-1.6-7.1-1.6s6.5,1.9,7,1.8C103.4,79.4,103.8,78.6,103.8,78.6z"
		/>
	<path class="st10" d="M103.9,87.9c0,0-0.6-0.7-0.8-0.6c-0.3,0.1-7.1,1.7-7.1,1.7s6.5-2,7-1.9C103.5,87.2,103.9,87.9,103.9,87.9z"/>
</g>
<g>
	<g>
		<path class="st17" d="M132.3,70.8l-17.4-0.2h-30l-30.7,0c0,0-13.8,0.4-14.9-5.3c0,0-2-10.5,1.6-12.4l8.6-2.3l10.1-9.8
			c0,0,3.5-2.6,6.9-2.6l24.8-0.9c5.1-0.9,23.8,14.3,23.8,14.3s16.7,1.4,23.1,7.7c0,0,2.6,2.7,0.7,10.2
			C138.9,69.3,137.9,71.3,132.3,70.8z"/>
	</g>
	<g>
		<path class="st18" d="M40.9,52.8l8.6-2.3l10.1-9.8c0,0,1.8-1.3,4-2C61.2,46,62.8,55,66.9,61.2c2.5,3.9,5.7,7,9.4,9.3l-22,0
			c0,0-13.8,0.4-14.9-5.3C39.3,65.2,37.3,54.7,40.9,52.8z"/>
	</g>
	<g>
		<path class="st18" d="M122.4,59.8c-5.8-0.8-11.3-2.3-16.2-5.7c-6.2-4.3-10.6-10.3-14-17c6.1,0.8,22.8,14.3,22.8,14.3
			s16.7,1.4,23.1,7.7c0,0,0.6,0.6,1,2C133.6,61.8,127.9,60.6,122.4,59.8z"/>
	</g>
	<g>
		<path class="st19" d="M39.3,61.7c1.1,5.7,14.9,5.3,14.9,5.3l30.7,0h30l17.4,0.2c5.6,0.5,6.6-1.5,6.6-1.5c0.3-1.2,0.5-2.3,0.6-3.2
			c0.2,1.6,0.2,3.8-0.6,6.7c0,0-0.9,2-6.6,1.5l-17.4-0.2h-30l-30.7,0c0,0-13.8,0.4-14.9-5.3c0,0-0.8-4.1-0.5-7.6
			C39,59.9,39.3,61.7,39.3,61.7z"/>
	</g>
	<g>
		<rect x="61.5" y="53.8" class="st1" width="5.5" height="1.1"/>
	</g>
	<g>
		<g>
			<path class="st17" d="M135.8,61.5C135.8,61.5,135.8,61.6,135.8,61.5L135.8,61.5z"/>
		</g>
	</g>
	<g>
		<g>
			<path class="st20" d="M110.3,70.6c0,0,0-0.1,0-0.1c0-5.6,4.6-10.2,10.2-10.2c5.6,0,10.2,4.6,10.2,10.2c0,0,0,0.1,0,0.1H110.3z"/>
		</g>
		<g>
			<g>
				<circle class="st18" cx="120.5" cy="70.5" r="8.2"/>
			</g>
			<g>
				<circle class="st21" cx="120.5" cy="70.6" r="5.4"/>
			</g>
			<g>
				<circle class="st17" cx="120.5" cy="70.6" r="4.8"/>
			</g>
			<g>
				<g>
					<rect x="120.1" y="65.9" class="st22" width="0.6" height="9.5"/>
				</g>
				<g>
					<rect x="115.7" y="70.3" class="st22" width="9.5" height="0.6"/>
				</g>
				<g>
					<polygon class="st22" points="123.6,74.2 124,73.8 117.3,67.1 116.9,67.5 					"/>
				</g>
				<g>
					<rect x="115.7" y="70.3" transform="matrix(0.7084 -0.7058 0.7058 0.7084 -14.7392 105.6213)" class="st22" width="9.5" height="0.6"/>
				</g>
				<g>
					<circle class="st23" cx="120.5" cy="70.6" r="1.3"/>
				</g>
			</g>
		</g>
	</g>
	<g>
		<g>
			<path class="st20" d="M54.2,70.5c0,0,0-0.1,0-0.1c0-5.6,4.6-10.2,10.2-10.2c5.6,0,10.2,4.6,10.2,10.2c0,0,0,0.1,0,0.1H54.2z"/>
		</g>
		<g>
			<g>
				<circle class="st18" cx="64.4" cy="70.4" r="8.2"/>
			</g>
			<g>
				<circle class="st21" cx="64.4" cy="70.5" r="5.4"/>
			</g>
			<g>
				<circle class="st17" cx="64.4" cy="70.5" r="4.8"/>
			</g>
			<g>
				<g>
					<rect x="64" y="65.8" class="st22" width="0.6" height="9.5"/>
				</g>
				<g>
					<rect x="59.6" y="70.2" class="st22" width="9.5" height="0.6"/>
				</g>
				<g>
					<rect x="64" y="65.8" transform="matrix(0.7052 -0.709 0.709 0.7052 -31.0229 66.4106)" class="st22" width="0.6" height="9.5"/>
				</g>
				<g>
					<polygon class="st22" points="67.9,67.4 67.5,66.9 60.8,73.7 61.2,74.1 					"/>
				</g>
				<g>
					<circle class="st23" cx="64.4" cy="70.5" r="1.3"/>
				</g>
			</g>
		</g>
	</g>
	<g>
		<path class="st24" d="M39.3,54.9c0,0-0.7,1.9-0.6,4.3c0,0,0.8,0.8,2.7,0c0,0,2.4-2.5,0.7-4.9C42.1,54.4,40.3,53.7,39.3,54.9z"/>
	</g>
	<g>
		<path class="st1" d="M139.4,62.3c0,0,0.3-1.8-1.6-3.6c0,0-3.1-2.6-4.6-2.9C133.2,55.9,131.5,61.6,139.4,62.3z"/>
	</g>
	<g>
		<g>
			<path class="st21" d="M136.6,60c0.2-0.7,0.5-1.1,1-1.5c0.2,0.1,0.3,0.2,0.3,0.2c1.9,1.8,1.6,3.6,1.6,3.6c-1.2-0.1-2.2-0.3-3-0.7
				C136.4,61.1,136.4,60.5,136.6,60z"/>
		</g>
		<g>
			<path class="st25" d="M133.2,58.5c-0.4-1.4,0-2.6,0-2.6c0.6,0.1,1.5,0.6,2.3,1.1C134.8,57.7,134.1,58.2,133.2,58.5z"/>
		</g>
	</g>
	<g>
		<path class="st26" d="M100,42c0,0-4-3-10-2.8l-23,0.9c0,0-2-0.1-5.2,3.7l-5.3,5.9c0,0-1.6,2.4,4.9,2.4h50.8
			C112.3,52.2,105.6,45.7,100,42z"/>
	</g>
	<g>
		<path class="st27" d="M98.9,42.5c0,0-3.8-2.6-9.4-2.4l-21.6,0.8c0,0-2.1,0.1-4.5,3.3l-4.9,5.1c0,0-1.9,2,4.2,2h47.7
			C110.4,51.3,104.2,45.7,98.9,42.5z"/>
	</g>
	<g>
		<path class="st28" d="M95.4,50.5c1.8-1.6,3.4-3.9,4-6.3c0.1-0.4,0.2-0.9,0.2-1.3c5.1,3.2,10.7,8.3,10.7,8.3H94.4
			C94.8,51.1,95.1,50.8,95.4,50.5z"/>
	</g>
	<g>
		<path class="st28" d="M78.8,45.6c1.4-2.5,3.5-3.9,6-4.7c0.6,3.4,1.5,6.7,1.9,10.2c-0.6,0.1-1.1,0.2-1.7,0.3h-7.4
			C77.4,49.3,77.8,47.2,78.8,45.6z"/>
	</g>
	<g>
		<path class="st28" d="M58.5,49.3l4.9-5.1c2.4-3.2,4.5-3.3,4.5-3.3l0.6,0c-0.7,3.5-0.3,7.3,1.2,10.5h-7
			C56.6,51.3,58.5,49.3,58.5,49.3z"/>
	</g>
	<g>
		<polygon class="st26" points="90,51.7 85.2,51.7 84.3,39.9 86.4,39.7 		"/>
	</g>
	<g>
		<path class="st26" d="M68.4,40.1c0,0-6.3,7.5-3.8,12.1l-5.4-0.9l-2-1.2l1.6-1.8L66,41C66,41,66.9,40.1,68.4,40.1z"/>
	</g>
	<g>
		<path class="st29" d="M67.2,40.9c0,0-5.5,6.2-3.9,10.4H59c0,0-1.7-0.4-1.3-1.5l8-8.6C65.6,41.1,66.5,40.7,67.2,40.9z"/>
	</g>
	<g>
		<g>
			<path class="st30" d="M107.3,52.2c0,1.2,1.9,2.2,3,2.2c1.1,0,2-1,2-2.2s-0.9-2.2-2-2.2C109.2,50,107.3,51,107.3,52.2z"/>
		</g>
		<g>
			<path class="st31" d="M109.8,53.3c1.1,0,2-1,2-2.2c0-0.1,0-0.3,0-0.4c0.3,0.4,0.6,0.9,0.6,1.5c0,1.2-0.9,2.2-2,2.2
				c-1.1,0-3-1-3-2.2c0,0,0,0,0,0C107.9,52.9,109,53.3,109.8,53.3z"/>
		</g>
	</g>
</g>
<g>
	<rect x="14.8" y="77.7" class="st32" width="144.2" height="1.2"/>
</g>
<path class="st1" d="M75.3,59.6L75.3,59.6c0-2.8,2.3-5.1,5.1-5.1h13.8c2.8,0,5.1,2.3,5.1,5.1v0c0,2.8-2.3,5.1-5.1,5.1l-13.8,0
	C77.5,64.7,75.3,62.4,75.3,59.6z"/>
<path class="st1" d="M81.4,62.9c0,0,0.1,0,0.1-0.1c0.3-0.1,0.6-0.4,0.8-0.6c0.1-0.1,0.2-0.2,0.3-0.4c0.1-0.1,0.2-0.3,0.3-0.4
	c0.2-0.3,0.3-0.6,0.4-0.9c0.1-0.3,0.1-0.5,0.1-0.8c0-0.3,0-0.5-0.1-0.8c-0.1-0.6-0.3-1.3-0.8-1.8c-0.3-0.3-0.6-0.6-0.9-0.7
	c-0.2-0.1-0.3-0.2-0.5-0.3c-0.1-0.1-0.3-0.2-0.4-0.2c-0.3-0.1-0.6-0.1-0.9-0.1c-0.4,0-0.8,0-1.2,0.1c-0.1,0-0.3,0.1-0.4,0.1
	c-0.8,0.3-1.4,0.9-1.8,1.7c-0.3,0.6-0.5,1.2-0.4,1.9c0.1,1.2,0.6,2.1,1.5,2.8c0.6,0.4,1.3,0.7,2,0.7c0.8,0,1.6-0.2,2.2-0.7
	c0,0,0,0,0.1,0c0,0,0,0,0,0c-0.2,0.1-0.3,0.2-0.5,0.4C81.3,62.8,81.4,62.8,81.4,62.9C81.4,62.8,81.4,62.9,81.4,62.9z"/>
<path class="st1" d="M87.7,61.7c1.6,0.4,3.1-1,2.7-2.7c-0.2-0.8-0.8-1.4-1.6-1.6c-1.6-0.4-3.1,1-2.7,2.7
	C86.3,60.9,86.9,61.5,87.7,61.7z"/>
<path class="st1" d="M97.8,61.8c-0.8-1.5-1.6-2.9-2.5-4.4c-0.8,1.5-1.6,2.9-2.5,4.4c0,0,0.1,0,0.1,0c0.3,0,0.7,0,1,0
	c0,0,0.1,0,0.1-0.1c0.4-0.7,0.8-1.5,1.3-2.2c0,0,0,0,0-0.1c0,0,0,0,0,0.1c0.1,0.2,0.3,0.5,0.4,0.7c0.3,0.5,0.6,1,0.9,1.6
	c0,0,0,0,0.1,0C97,61.8,97.4,61.8,97.8,61.8z"/>
<path class="st1" d="M90.8,57.4v4.4c0,0,0,0,0,0c0.5,0,1.1,0,1.6,0c0,0,0,0,0.1,0c0.2-0.3,0.4-0.6,0.5-0.9c0,0,0,0,0-0.1
	c-0.4,0-0.8,0-1.3,0c0-1.1,0-2.2,0-3.4C91.4,57.4,91.1,57.4,90.8,57.4z"/>
<path d="M88.2,61.8c-1.2,0-2.2-1-2.2-2.2c0-1.2,1-2.2,2.2-2.2c1.2,0,2.2,1,2.2,2.2C90.4,60.8,89.4,61.8,88.2,61.8z M88.2,60.7
	c0.6,0,1.2-0.5,1.2-1.2c0-0.6-0.5-1.2-1.2-1.2c-0.6,0-1.2,0.5-1.2,1.2C87.1,60.2,87.6,60.7,88.2,60.7z"/>
<path d="M97,61.6c-0.4,0-0.7,0-1,0c0,0,0,0-0.1,0c-0.3-0.5-0.5-1-0.8-1.4c-0.1-0.2-0.2-0.4-0.4-0.6c0,0,0,0,0,0c0,0,0,0,0,0.1
	c-0.4,0.7-0.8,1.4-1.2,2.1c0,0,0,0-0.1,0c-0.3,0-0.6,0-0.9,0c0,0,0,0-0.1,0c0.8-1.4,1.5-2.7,2.3-4.1C95.5,58.9,96.3,60.2,97,61.6z"
	/>
<path d="M90.5,57.5c0.3,0,0.6,0,0.9,0c0,1,0,2.1,0,3.1c0.4,0,0.8,0,1.2,0c0,0,0,0,0,0c-0.2,0.3-0.3,0.6-0.5,0.9c0,0,0,0-0.1,0
	c-0.5,0-1,0-1.5,0c0,0,0,0,0,0C90.5,60.3,90.5,58.9,90.5,57.5z"/>
<path class="st1" d="M78.2,60.5C78.3,60.4,78.3,60.4,78.2,60.5c0.1,0.1,0.1,0.1,0.2,0.1c0,0,0,0,0-0.1c-0.2-0.3-0.3-0.7-0.3-1.1
	c0.1-0.5,0.3-0.9,0.7-1.2c0.6-0.4,1.3-0.4,1.9,0c0.3,0.2,0.5,0.4,0.6,0.7c0.1,0.2,0.1,0.4,0.1,0.5c0,0.2,0,0.4,0,0.5
	c0,0.1,0,0.1-0.1,0.2c0,0.1-0.1,0.2-0.2,0.3c0,0.1-0.1,0.1-0.1,0.2c-0.3,0.3-0.6,0.5-1,0.6c-0.5,0.1-0.9,0-1.3-0.2
	c-0.2-0.1-0.4-0.2-0.5-0.4C78.3,60.6,78.3,60.5,78.2,60.5z M81.2,60.5c-0.3,0.5-0.8,0.7-1.3,0.7c0.1,0,0.2,0,0.2,0
	c0.3-0.1,0.6-0.2,0.8-0.4C81,60.8,81.1,60.7,81.2,60.5C81.1,60.5,81.2,60.5,81.2,60.5z"/>
<path class="st1" d="M80.2,62.8c0.3-0.1,0.5-0.2,0.8-0.3c0.4-0.2,0.7-0.5,1-0.8c0-0.1,0.1-0.1,0.1-0.2c0.1-0.2,0.2-0.3,0.3-0.5
	c0.1-0.1,0.1-0.3,0.1-0.4c0-0.2,0.1-0.5,0.1-0.7c0.1-0.5,0-1-0.2-1.4c-0.1-0.4-0.4-0.8-0.7-1c-0.4-0.3-0.8-0.5-1.2-0.6
	c-0.7-0.2-1.5-0.1-2.1,0.2c-0.4,0.2-0.7,0.4-0.9,0.8c0,0-0.1,0.1-0.1,0.1c0-0.1,0.1-0.2,0.1-0.3c0.1-0.2,0.3-0.3,0.4-0.4
	c0.4-0.3,0.8-0.5,1.3-0.6c0.2,0,0.3,0,0.5,0c0.4,0,0.9,0.1,1.3,0.2c0.4,0.2,0.8,0.5,1.1,0.8c0.4,0.4,0.6,1,0.7,1.5c0,0,0,0.1,0,0.1
	c0,0.2,0,0.4,0,0.6c0,0.3,0,0.6-0.2,0.9c-0.4,1.1-1.2,1.7-2.4,2C80.3,62.8,80.2,62.8,80.2,62.8z"/>
<path class="st1" d="M77.6,62.2C77.6,62.2,77.6,62.1,77.6,62.2c-0.6-0.4-0.9-0.9-1.2-1.5c-0.1-0.3-0.2-0.5-0.2-0.8
	c0-0.2,0-0.3,0-0.5c0-0.2,0.1-0.4,0.1-0.6c0.1-0.2,0.2-0.5,0.3-0.7c0.5-0.9,1.2-1.5,2.2-1.8c0.5-0.1,0.9-0.2,1.4-0.1
	c0.3,0,0.5,0.1,0.8,0.2c0.5,0.2,1,0.5,1.4,0.9c0.2,0.3,0.4,0.6,0.6,0.9c0.1,0.2,0.2,0.5,0.2,0.7c0.1,0.2,0.1,0.4,0.1,0.7
	c0,0,0-0.1,0-0.1c0,0,0-0.1,0-0.1c-0.1-0.7-0.4-1.3-0.9-1.9c-0.6-0.6-1.2-0.9-2-1c-0.4-0.1-0.7-0.1-1.1,0c-0.2,0-0.3,0.1-0.5,0.1
	c-0.5,0.2-0.9,0.4-1.2,0.7c-0.1,0.1-0.2,0.2-0.3,0.3c-0.1,0.1-0.2,0.3-0.3,0.4c-0.4,0.6-0.5,1.3-0.5,2c0.1,0.8,0.4,1.4,0.9,2
	C77.4,61.9,77.5,62.1,77.6,62.2C77.6,62.2,77.6,62.2,77.6,62.2z"/>
<ellipse transform="matrix(2.804433e-03 -1 1 2.804433e-03 28.3415 147.5788)" class="st1" cx="88.2" cy="59.6" rx="1.1" ry="1.1"/>
<path d="M81.2,60.5C81.2,60.5,81.1,60.5,81.2,60.5c-0.1,0.2-0.2,0.3-0.3,0.4c-0.2,0.2-0.5,0.3-0.8,0.4c-0.1,0-0.1,0-0.2,0
	C80.4,61.2,80.8,61,81.2,60.5z"/>
<circle class="st33" cx="80.2" cy="60" r="2"/>
<path d="M81.8,62.7C81.8,62.6,81.8,62.6,81.8,62.7c0-0.1-0.1-0.1-0.1,0c0.2-0.1,0.3-0.2,0.5-0.3c0,0,0,0,0,0c0,0,0,0-0.1,0
	c-0.4,0.3-0.9,0.5-1.4,0.6c-1,0.2-1.9,0-2.6-0.7c-0.7-0.6-1.1-1.3-1.3-2.2c-0.1-0.9,0-1.7,0.5-2.4c0.4-0.6,0.9-1,1.5-1.3
	c0.1-0.1,0.3-0.1,0.4-0.1c0.4-0.1,0.7-0.1,1.1-0.1c0.3,0,0.6,0,0.8,0.1c0.1,0,0.3,0.1,0.4,0.2c0.2,0.1,0.3,0.2,0.5,0.3
	c0.3,0.1,0.5,0.4,0.8,0.6c0.5,0.5,0.7,1.1,0.8,1.7c0,0.2,0.1,0.5,0.1,0.7c0,0.2-0.1,0.5-0.1,0.7c-0.1,0.3-0.2,0.6-0.4,0.8
	c-0.1,0.1-0.2,0.3-0.2,0.4c-0.1,0.1-0.2,0.2-0.3,0.3c-0.2,0.2-0.4,0.4-0.7,0.6C81.9,62.6,81.9,62.7,81.8,62.7z M78.8,60.4
	c0.1,0.1,0.1,0.2,0.2,0.2c0.1,0.2,0.3,0.3,0.5,0.4c0.4,0.2,0.8,0.3,1.2,0.2c0.4-0.1,0.7-0.3,0.9-0.6c0,0,0.1-0.1,0.1-0.1
	c0.1-0.1,0.1-0.2,0.1-0.3c0-0.1,0-0.1,0.1-0.2c0-0.2,0-0.3,0-0.5c0-0.2-0.1-0.3-0.1-0.5c-0.1-0.3-0.3-0.5-0.6-0.7
	c-0.5-0.4-1.2-0.3-1.8,0c-0.4,0.3-0.6,0.7-0.7,1.1c0,0.4,0.1,0.7,0.3,1c0,0,0,0,0,0C79,60.5,78.9,60.5,78.8,60.4
	C78.9,60.4,78.9,60.4,78.8,60.4z M80.7,62.6c0,0,0.1,0,0.1,0c1.1-0.2,1.8-0.9,2.2-1.9c0.1-0.3,0.2-0.5,0.1-0.8c0-0.2,0-0.4,0-0.6
	c0,0,0-0.1,0-0.1c-0.1-0.5-0.3-1-0.7-1.4c-0.3-0.3-0.6-0.6-1-0.7c-0.4-0.2-0.8-0.2-1.2-0.2c-0.2,0-0.3,0-0.5,0
	c-0.4,0.1-0.8,0.3-1.2,0.6c-0.1,0.1-0.3,0.2-0.4,0.4c-0.1,0.1-0.1,0.2-0.1,0.3c0,0,0.1-0.1,0.1-0.1c0.2-0.3,0.5-0.5,0.8-0.7
	c0.6-0.3,1.3-0.4,2-0.2c0.4,0.1,0.8,0.3,1.1,0.6c0.3,0.3,0.5,0.6,0.7,1c0.2,0.4,0.3,0.9,0.2,1.3c0,0.2-0.1,0.4-0.1,0.6
	c0,0.1-0.1,0.2-0.1,0.4c-0.1,0.1-0.2,0.3-0.3,0.4c0,0.1-0.1,0.1-0.1,0.2c-0.3,0.3-0.6,0.6-1,0.8C81.2,62.5,80.9,62.6,80.7,62.6z
	 M78.3,62C78.3,62,78.3,62,78.3,62c-0.1-0.1-0.2-0.2-0.3-0.3c-0.5-0.5-0.8-1.1-0.8-1.8c0-0.7,0.1-1.3,0.5-1.8
	c0.1-0.1,0.2-0.3,0.3-0.4c0.1-0.1,0.2-0.2,0.3-0.3c0.3-0.3,0.7-0.5,1.2-0.7c0.1-0.1,0.3-0.1,0.4-0.1c0.3-0.1,0.7,0,1,0
	c0.7,0.1,1.3,0.4,1.9,0.9c0.5,0.5,0.8,1.1,0.9,1.7c0,0,0,0.1,0,0.1c0,0,0,0.1,0,0.1c0-0.2,0-0.4-0.1-0.6c-0.1-0.2-0.1-0.4-0.2-0.6
	c-0.2-0.3-0.3-0.6-0.5-0.8c-0.3-0.4-0.8-0.7-1.3-0.8c-0.2-0.1-0.5-0.1-0.7-0.2c-0.4-0.1-0.9-0.1-1.3,0.1c-0.9,0.3-1.6,0.8-2.1,1.7
	c-0.1,0.2-0.2,0.4-0.3,0.6c0,0.2-0.1,0.4-0.1,0.6c0,0.1,0,0.3,0,0.4c0,0.3,0.1,0.5,0.2,0.8C77.4,61.1,77.7,61.6,78.3,62
	C78.2,62,78.2,62,78.3,62z"/>
</svg>
